<svg id="Calque_1" data-name="Calque 1" xmlns="http://www.w3.org/2000/svg" viewBox="0 0 169 61.99"><defs><style>.cls-1{isolation:isolate;}.cls-2{fill:#fcfcfc;}.cls-3{fill:#2473ba;}.cls-11,.cls-3,.cls-4,.cls-5,.cls-6,.cls-7,.cls-8,.cls-9{fill-rule:evenodd;}.cls-10,.cls-4{fill:#0c0f1e;}.cls-5{fill:#fbd4c9;}.cls-6{fill:#f49c85;}.cls-7{fill:#116d93;}.cls-8{fill:#303663;}.cls-9{fill:#fff;}.cls-11{fill:#f8c0b0;}</style></defs><g class="cls-1"><path class="cls-2" d="M55.48,18.7a1.53,1.53,0,0,1,.58.16,1.37,1.37,0,0,1,.46.36,1.49,1.49,0,0,1,.29.5.83.83,0,0,1,0,.56,6.46,6.46,0,0,1-.65,1.53,6.65,6.65,0,0,1-1,1.32,5.82,5.82,0,0,1-1.25,1,5.12,5.12,0,0,1-1.49.62,3.12,3.12,0,0,1-1.55-.09,1.65,1.65,0,0,1-1-1.06,3.29,3.29,0,0,1-.08-2.21,6.55,6.55,0,0,1,1.13-2.15,9.57,9.57,0,0,1,1.88-1.82A10.25,10.25,0,0,1,55,16.18a9,9,0,0,1,1-.3,9.25,9.25,0,0,1,1.17-.21,9,9,0,0,1,1.16-.05,3.93,3.93,0,0,1,1,.14,2.7,2.7,0,0,1,1.34.73,2,2,0,0,1,.58,1.36,4.92,4.92,0,0,1-.08,1,8.36,8.36,0,0,1-.28,1.15,11.31,11.31,0,0,1-.46,1.14,9.17,9.17,0,0,1-.55,1,9,9,0,0,0,1.79-.81,14.13,14.13,0,0,0,1.84-1.24,16.63,16.63,0,0,0,1.69-1.57,11.57,11.57,0,0,0,1.38-1.79A1.92,1.92,0,0,1,68.76,16c.37.09.55.27.56.56a1.82,1.82,0,0,1-.24.91,7,7,0,0,1-.61,1c-.24.31-.42.54-.54.68a18.09,18.09,0,0,1-2.37,2.35q-1.23,1-2.58,2c-.5.34-1,.68-1.57,1a9.64,9.64,0,0,1-1.56.8,5.48,5.48,0,0,0-.31-.68,2.85,2.85,0,0,0-.5-.68,18.87,18.87,0,0,0,.84,3.57,15.7,15.7,0,0,0,1.62,3.32,14.57,14.57,0,0,0,5.83,5.17c.08.07.13.13.13.19a.18.18,0,0,1-.09.15.48.48,0,0,1-.22.08.49.49,0,0,1-.27,0,13.47,13.47,0,0,1-2.76-1,12.72,12.72,0,0,1-2.69-1.79,12.85,12.85,0,0,1-2.31-2.63,12.28,12.28,0,0,1-1.57-3.52,15.72,15.72,0,0,1-2.11,2.87,19.56,19.56,0,0,1-2.37,2.2,3.39,3.39,0,0,1-1,.35,5.74,5.74,0,0,1-1.06.1,3.4,3.4,0,0,1-.85-.09c-.22-.07-.34-.16-.34-.27a9.74,9.74,0,0,0,1.81-1.48A19.11,19.11,0,0,0,53.42,29a27.57,27.57,0,0,0,1.66-2.41c.52-.85,1-1.7,1.43-2.54a23.46,23.46,0,0,0,1.11-2.45,16,16,0,0,0,.68-2.13,5.18,5.18,0,0,0,.17-1.61A.91.91,0,0,0,58,17a3.27,3.27,0,0,0-1.3-.1,5.85,5.85,0,0,0-1.43.35,8,8,0,0,0-1.42.73,7.79,7.79,0,0,0-1.28,1,6.49,6.49,0,0,0-1,1.22A5.08,5.08,0,0,0,51,21.6a2.41,2.41,0,0,0-.08.44,1.36,1.36,0,0,0,0,.45.81.81,0,0,0,.4.56,1,1,0,0,0,.75,0,4.68,4.68,0,0,0,1-.57,5.07,5.07,0,0,0,1-.92,7.08,7.08,0,0,0,.84-1.28A5.72,5.72,0,0,0,55.48,18.7Z" transform="translate(-0.5 -2.01)"/></g><g class="cls-1"><path class="cls-2" d="M69.8,26.39a10.36,10.36,0,0,1,1.42-1.74,10.55,10.55,0,0,1,1.65-1.26,1.62,1.62,0,0,1,.7-.26,1.46,1.46,0,0,1,.69.07,1.66,1.66,0,0,1,.59.31,1.27,1.27,0,0,1,.36.49,2.94,2.94,0,0,1,.17,1,5.75,5.75,0,0,1-.09,1A8.32,8.32,0,0,1,75,27a9.38,9.38,0,0,1-.35.93c-.23.54-.45,1.08-.66,1.63s-.44,1.09-.68,1.65c-.07.2-.15.39-.23.58s-.14.39-.19.59a2.38,2.38,0,0,0-.07.59,1.54,1.54,0,0,0,.1.56,1.3,1.3,0,0,0,.37.51.94.94,0,0,0,.59.21,1.74,1.74,0,0,0,.65-.07,1.84,1.84,0,0,0,.56-.28,1.2,1.2,0,0,0,.37-.44,1.07,1.07,0,0,0,.09-.59.62.62,0,0,0,0-.16,1.21,1.21,0,0,1-.05-.18.16.16,0,0,1,0-.14s.09,0,.17,0l.12.13a.43.43,0,0,1,.12.17A1.52,1.52,0,0,1,76,33.78a2,2,0,0,1-.61.86,2.79,2.79,0,0,1-1,.54,3,3,0,0,1-1.09.16,3.08,3.08,0,0,1-1.1-.21,2.77,2.77,0,0,1-.82-.5,2.31,2.31,0,0,1-.54-.71,2.36,2.36,0,0,1-.21-.84,4.44,4.44,0,0,1,0-.82,5.46,5.46,0,0,1,.18-1A13.44,13.44,0,0,1,71.22,30q.27-.7.69-1.65c.11-.3.27-.67.46-1.11s.37-.86.53-1.27a7.75,7.75,0,0,0,.36-1.05c.08-.3.06-.45-.05-.45a4.86,4.86,0,0,0-.51.28,3.68,3.68,0,0,0-.47.36,9.29,9.29,0,0,0-1.69,2.09c-.44.74-.86,1.49-1.27,2.26-.14.27-.28.53-.4.78s-.23.49-.33.73a.83.83,0,0,1-.4.34.35.35,0,0,1-.41,0,2.66,2.66,0,0,1-.55-1.41,8.23,8.23,0,0,1,0-1.86,18.15,18.15,0,0,1,.31-2c.14-.69.27-1.31.4-1.88.29-1,.6-2,1-2.91A24.87,24.87,0,0,1,70,18.49a6.49,6.49,0,0,1,.39-.62,6,6,0,0,1,.46-.6,1.19,1.19,0,0,1,.19-.2l.21-.2a1.22,1.22,0,0,1,1.2-.28.75.75,0,0,1,.57.7,2,2,0,0,1,0,.54,2.85,2.85,0,0,1-.12.53.7.7,0,0,1-.06.17,1.08,1.08,0,0,0-.08.19c-.25.54-.54,1.15-.88,1.84s-.67,1.4-1,2.11-.58,1.41-.8,2.06A5.81,5.81,0,0,0,69.8,26.39Z" transform="translate(-0.5 -2.01)"/><path class="cls-2" d="M88.28,25.41a.35.35,0,0,1,0,.42,3.12,3.12,0,0,0-.18.39c-.17.26-.38.58-.61,1s-.49.78-.78,1.2-.58.84-.89,1.25a10.79,10.79,0,0,1-1,1.12,5.83,5.83,0,0,1-1,.81,1.75,1.75,0,0,1-1,.29,1.41,1.41,0,0,1-.71-.41,1.54,1.54,0,0,1-.35-.64,3.67,3.67,0,0,1-.11-.75c0-.27,0-.52,0-.76l-.63.54c-.24.19-.48.39-.74.58s-.51.36-.76.52a4.82,4.82,0,0,1-.69.38,4.11,4.11,0,0,1-1.19.52,2.29,2.29,0,0,1-1.07,0,1.35,1.35,0,0,1-.76-.58A2.36,2.36,0,0,1,75.6,30a5.21,5.21,0,0,1,.28-1.66,8.16,8.16,0,0,1,.8-1.66,8,8,0,0,1,1.24-1.51,9,9,0,0,1,1.58-1.24,5.79,5.79,0,0,1,1.79-.65,2.61,2.61,0,0,1,1.64.2,1.35,1.35,0,0,1,.63.78,1.4,1.4,0,0,1-.12,1.12l-.15.23a.17.17,0,0,1-.23.09.19.19,0,0,1-.1-.21,2.27,2.27,0,0,0,0-.24c0-.3-.21-.4-.49-.3a6.66,6.66,0,0,0-1.49.79,8.32,8.32,0,0,0-1.26,1.08,9.27,9.27,0,0,0-1,1.19,5.19,5.19,0,0,0-.59,1.14.89.89,0,0,0-.12.32,2,2,0,0,0-.07.42.74.74,0,0,0,.07.34c0,.09.14.12.29.09a7.63,7.63,0,0,0,1.9-.92,18.46,18.46,0,0,0,1.63-1.27,2.32,2.32,0,0,0,.29-.62,1.78,1.78,0,0,1,.33-.62,1.05,1.05,0,0,1,.51-.41,1,1,0,0,1,.57-.06.74.74,0,0,1,.54.92c0,.37-.06.73-.08,1.1L84,29.52c0,.39,0,.58.18.59s.34-.1.58-.33a11.21,11.21,0,0,0,.81-.93c.3-.39.6-.79.89-1.2l.82-1.16a7,7,0,0,1,.62-.78c.06-.07.11-.14.17-.2A.31.31,0,0,1,88.28,25.41Z" transform="translate(-0.5 -2.01)"/><path class="cls-2" d="M88.45,30.14c.08.12.21.14.39.08a2.37,2.37,0,0,0,.63-.4,9.88,9.88,0,0,0,.78-.73c.27-.29.55-.61.82-.94s.53-.67.79-1l.68-.94a.59.59,0,0,1,.13-.17.48.48,0,0,1,.19-.11c.1.06.12.15.06.28l-.09.26a2.6,2.6,0,0,0-.1.25c-.37.71-.75,1.38-1.15,2a10.83,10.83,0,0,1-1.26,1.62A5.5,5.5,0,0,1,89,31.39a2.65,2.65,0,0,1-1.46.31,1.4,1.4,0,0,1-.75-.29,1.93,1.93,0,0,1-.49-.6,2.76,2.76,0,0,1-.28-.76,6,6,0,0,1-.1-.78,14.38,14.38,0,0,1,.26-2.9A21.23,21.23,0,0,1,87,23.25a21.55,21.55,0,0,1,1.31-3.05A18.41,18.41,0,0,1,90,17.48a5,5,0,0,1,.5-.53,2.51,2.51,0,0,1,.61-.38,1,1,0,0,1,.81,0,1.25,1.25,0,0,1,.49.45,1,1,0,0,1,.1.45,1.24,1.24,0,0,1-.08.46c-.09.19-.17.37-.26.54a3.92,3.92,0,0,1-.29.53c-.52.93-1,1.83-1.38,2.67s-.78,1.7-1.12,2.55c-.2.47-.39,1-.58,1.57a15.31,15.31,0,0,0-.47,1.72,6.82,6.82,0,0,0-.17,1.56A1.64,1.64,0,0,0,88.45,30.14Z" transform="translate(-0.5 -2.01)"/><path class="cls-2" d="M92,25.2q.09-.18.18-.33a3.37,3.37,0,0,1,.21-.31,1.58,1.58,0,0,1,1.3-.64A1,1,0,0,1,94,24a.93.93,0,0,1,.33.21,1,1,0,0,1,.23.32.74.74,0,0,1,.08.42,2.08,2.08,0,0,1-.17.79c-.29.68-.57,1.33-.86,1.93a8,8,0,0,0-.61,1.8,1.22,1.22,0,0,0,.06.61c.07.18.23.24.49.2a2.07,2.07,0,0,0,1-.6,12.23,12.23,0,0,0,1.18-1.2c.38-.45.73-.9,1.06-1.34l.75-1,.25-.32q.19-.12.24.06a.46.46,0,0,1,0,.31,2.44,2.44,0,0,1-.1.24c0,.08-.07.15-.1.23A12.2,12.2,0,0,1,97.05,28a15.46,15.46,0,0,1-2.22,2.59,6.45,6.45,0,0,1-1.18.87,2.57,2.57,0,0,1-1.18.28,2,2,0,0,1-1-.3,2,2,0,0,1-.65-.76,2.39,2.39,0,0,1-.21-1.09,6.57,6.57,0,0,1,.43-2.25C91.34,26.61,91.64,25.91,92,25.2Zm1.64-2.52a1.13,1.13,0,0,1-.23-.67,1.45,1.45,0,0,1,.17-.67,1.65,1.65,0,0,1,.5-.56,1.59,1.59,0,0,1,.78-.31,1.73,1.73,0,0,1,1.14.17c.26.17.33.5.22,1a1.76,1.76,0,0,1-.42.73,2.47,2.47,0,0,1-.72.55,1.48,1.48,0,0,1-.79.16A.84.84,0,0,1,93.6,22.68Z" transform="translate(-0.5 -2.01)"/><path class="cls-2" d="M98.31,30.14c.09.12.22.14.4.08a2.52,2.52,0,0,0,.62-.4,7.3,7.3,0,0,0,.78-.73c.28-.29.55-.61.82-.94s.54-.67.79-1,.48-.66.68-.94a1.47,1.47,0,0,1,.13-.17.56.56,0,0,1,.19-.11c.1.06.12.15.07.28s-.06.17-.1.26a2.5,2.5,0,0,0-.09.25c-.37.71-.76,1.38-1.16,2a10.18,10.18,0,0,1-1.25,1.62,5.36,5.36,0,0,1-1.38,1.07,2.62,2.62,0,0,1-1.46.31,1.36,1.36,0,0,1-.74-.29,1.8,1.8,0,0,1-.49-.6,2.76,2.76,0,0,1-.28-.76,6.07,6.07,0,0,1-.11-.78,15.2,15.2,0,0,1,.27-2.9,21.18,21.18,0,0,1,.83-3.12,22.77,22.77,0,0,1,1.31-3.05,18.45,18.45,0,0,1,1.71-2.72,4.18,4.18,0,0,1,.5-.53,2.45,2.45,0,0,1,.6-.38,1,1,0,0,1,.81,0,1.13,1.13,0,0,1,.49.45.93.93,0,0,1,.11.45,1.48,1.48,0,0,1-.08.46l-.26.54a4,4,0,0,1-.3.53c-.51.93-1,1.83-1.37,2.67s-.78,1.7-1.12,2.55c-.2.47-.4,1-.59,1.57a17.78,17.78,0,0,0-.47,1.72A7.43,7.43,0,0,0,98,29.07,1.7,1.7,0,0,0,98.31,30.14Z" transform="translate(-0.5 -2.01)"/></g><g class="cls-1"><path class="cls-2" d="M115.74,29.37a11.14,11.14,0,0,1-1.26.85,6.45,6.45,0,0,1-1.34.6A5.59,5.59,0,0,1,111,31a3.31,3.31,0,0,1-1.92-.85,5,5,0,0,1-.82-1,4.11,4.11,0,0,1-.48-1.24,7,7,0,0,1-.08-1.88,9.76,9.76,0,0,1,.39-1.86,10.55,10.55,0,0,1,.73-1.73,17.45,17.45,0,0,1,1-1.58,18.05,18.05,0,0,1,3.11-3.45,13.09,13.09,0,0,1,3.88-2.31c.43-.14.87-.25,1.31-.35a5.44,5.44,0,0,1,1.32-.11,4.07,4.07,0,0,1,1.26.22,3.1,3.1,0,0,1,1.12.65,2.24,2.24,0,0,1,.68,1,2.93,2.93,0,0,1,.13,1.24,6.39,6.39,0,0,1-.46,1.78,7.35,7.35,0,0,1-1,1.63,10.85,10.85,0,0,1-1,1.17,12.43,12.43,0,0,1-1.13,1,12.57,12.57,0,0,1-1.22.75,3.24,3.24,0,0,1-1.27.36,1.58,1.58,0,0,1-.92-.25,1.55,1.55,0,0,1-.54-.6,2,2,0,0,1-.19-.82,2.44,2.44,0,0,1,.14-.89,5.34,5.34,0,0,1,1.57-2.32,3.15,3.15,0,0,1,1.82-.64,1,1,0,0,1,.76.3c.27.3.23.57-.13.81a4.33,4.33,0,0,0-1.26,1.36,9.33,9.33,0,0,0-.72,1.66,4,4,0,0,0,1.21-.54,7,7,0,0,0,1-.85,8.22,8.22,0,0,0,.89-1.05c.27-.37.51-.74.74-1.11a4.17,4.17,0,0,0,.42-1.51,1.69,1.69,0,0,0-.26-1.06,1.44,1.44,0,0,0-.89-.56,3.57,3.57,0,0,0-1.48,0,8.28,8.28,0,0,0-2.44,1.08,10.84,10.84,0,0,0-2,1.7,15.51,15.51,0,0,0-1.62,2.11c-.48.76-.91,1.53-1.3,2.31a15.38,15.38,0,0,0-.56,1.52,9.37,9.37,0,0,0-.37,1.64,4.5,4.5,0,0,0,0,1.47,1.38,1.38,0,0,0,.6,1,2.43,2.43,0,0,0,1.68.26,5.86,5.86,0,0,0,1.84-.71,10.42,10.42,0,0,0,1.84-1.4,17.92,17.92,0,0,0,1.68-1.81l.45-.59a6.47,6.47,0,0,1,.5-.56.54.54,0,0,1,.41-.17c.16,0,.25,0,.28.17a.41.41,0,0,1,0,.4q-1.22,2.68-2.24,5.41A28.23,28.23,0,0,0,116,35.79a.11.11,0,0,0,.06.14l.19,0,.2,0a.1.1,0,0,1,.06.12,1.83,1.83,0,0,1-.55.56,4.38,4.38,0,0,1-.8.43,6,6,0,0,1-.88.29,5.38,5.38,0,0,1-.77.13.57.57,0,0,1-.52-.64,9.63,9.63,0,0,1,.39-2,17.82,17.82,0,0,1,.7-1.89q.41-.93.84-1.83C115.23,30.57,115.5,30,115.74,29.37Z" transform="translate(-0.5 -2.01)"/></g><g class="cls-1"><path class="cls-2" d="M123.86,26.39a10.36,10.36,0,0,1,1.42-1.74,10.55,10.55,0,0,1,1.65-1.26,1.62,1.62,0,0,1,.7-.26,1.5,1.5,0,0,1,.7.07,1.71,1.71,0,0,1,.58.31,1.27,1.27,0,0,1,.36.49,2.94,2.94,0,0,1,.17,1,5.75,5.75,0,0,1-.09,1,8.32,8.32,0,0,1-.26,1,9.38,9.38,0,0,1-.35.93c-.23.54-.45,1.08-.66,1.63s-.44,1.09-.68,1.65c-.07.2-.15.39-.23.58s-.14.39-.19.59a2.38,2.38,0,0,0-.07.59,1.54,1.54,0,0,0,.1.56,1.3,1.3,0,0,0,.37.51.94.94,0,0,0,.59.21,1.74,1.74,0,0,0,.65-.07,1.84,1.84,0,0,0,.56-.28,1.2,1.2,0,0,0,.37-.44,1.07,1.07,0,0,0,.09-.59.37.37,0,0,0,0-.16,1.21,1.21,0,0,1,0-.18.16.16,0,0,1,0-.14s.09,0,.17,0l.12.13a.43.43,0,0,1,.12.17,1.52,1.52,0,0,1,.07,1.12,2,2,0,0,1-.61.86,2.79,2.79,0,0,1-1,.54,3,3,0,0,1-1.09.16,3.08,3.08,0,0,1-1.1-.21,2.9,2.9,0,0,1-.82-.5,2.13,2.13,0,0,1-.53-.71,2.18,2.18,0,0,1-.22-.84,4.44,4.44,0,0,1,0-.82,5.46,5.46,0,0,1,.18-1,13.44,13.44,0,0,1,.42-1.28q.27-.7.69-1.65c.11-.3.27-.67.46-1.11s.37-.86.53-1.27a7.75,7.75,0,0,0,.36-1.05c.08-.3.06-.45,0-.45s-.35.18-.51.28a3.68,3.68,0,0,0-.47.36,9.29,9.29,0,0,0-1.69,2.09c-.44.74-.86,1.49-1.27,2.26-.14.27-.28.53-.4.78s-.23.49-.33.73a.83.83,0,0,1-.4.34.35.35,0,0,1-.41,0,2.66,2.66,0,0,1-.55-1.41,8.86,8.86,0,0,1,0-1.86,18.15,18.15,0,0,1,.31-2c.14-.69.28-1.31.4-1.88.29-1,.6-2,1-2.91a24.87,24.87,0,0,1,1.21-2.69,6.49,6.49,0,0,1,.39-.62,6,6,0,0,1,.46-.6,1.19,1.19,0,0,1,.19-.2l.21-.2a1.22,1.22,0,0,1,1.2-.28.74.74,0,0,1,.57.7,2,2,0,0,1,0,.54,2.85,2.85,0,0,1-.12.53.7.7,0,0,1-.06.17,1.08,1.08,0,0,0-.08.19c-.25.54-.54,1.15-.88,1.84s-.67,1.4-1,2.11-.58,1.41-.8,2.06A6.17,6.17,0,0,0,123.86,26.39Z" transform="translate(-0.5 -2.01)"/><path class="cls-2" d="M142.34,25.41a.35.35,0,0,1,0,.42,3.12,3.12,0,0,0-.18.39l-.61,1q-.34.57-.78,1.2c-.28.42-.58.84-.89,1.25a10.79,10.79,0,0,1-1,1.12,5.83,5.83,0,0,1-1,.81,1.75,1.75,0,0,1-1,.29A1.4,1.4,0,0,1,136,30.8a3.09,3.09,0,0,1-.12-.75c0-.27,0-.52,0-.76l-.63.54c-.24.19-.48.39-.74.58s-.51.36-.75.52a5.5,5.5,0,0,1-.7.38,4,4,0,0,1-1.19.52,2.29,2.29,0,0,1-1.07,0,1.35,1.35,0,0,1-.76-.58,2.36,2.36,0,0,1-.32-1.28,5,5,0,0,1,.29-1.66,7.62,7.62,0,0,1,.79-1.66A8.44,8.44,0,0,1,132,25.16a9,9,0,0,1,1.58-1.24,5.79,5.79,0,0,1,1.79-.65,2.61,2.61,0,0,1,1.64.2,1.31,1.31,0,0,1,.63.78,1.4,1.4,0,0,1-.12,1.12l-.15.23a.17.17,0,0,1-.23.09.19.19,0,0,1-.1-.21,2.27,2.27,0,0,0,0-.24c0-.3-.21-.4-.49-.3a6.66,6.66,0,0,0-1.49.79,8.32,8.32,0,0,0-1.26,1.08,9.27,9.27,0,0,0-1,1.19,5.19,5.19,0,0,0-.59,1.14.89.89,0,0,0-.12.32,2,2,0,0,0-.07.42.74.74,0,0,0,.07.34c0,.09.14.12.29.09a7.63,7.63,0,0,0,1.9-.92,18.46,18.46,0,0,0,1.63-1.27,2.32,2.32,0,0,0,.29-.62,2.2,2.2,0,0,1,.33-.62,1.05,1.05,0,0,1,.51-.41,1,1,0,0,1,.57-.06.76.76,0,0,1,.43.29.79.79,0,0,1,.11.63c0,.37-.06.73-.08,1.1L138,29.52c0,.39,0,.58.18.59s.34-.1.58-.33a11.21,11.21,0,0,0,.81-.93c.3-.39.6-.79.89-1.2l.82-1.16a7,7,0,0,1,.62-.78c.06-.07.11-.14.17-.2A.31.31,0,0,1,142.34,25.41Z" transform="translate(-0.5 -2.01)"/><path class="cls-2" d="M147.75,23.75a1.69,1.69,0,0,1,.68,1,2.57,2.57,0,0,1,0,1.2,8.14,8.14,0,0,1-.47,1.39c-.21.49-.43,1-.66,1.48s-.43,1-.62,1.49a4.82,4.82,0,0,0-.3,1.43.48.48,0,0,0,.4.5,1.07,1.07,0,0,0,.75-.14,2.46,2.46,0,0,0,.32-.19l.3-.21a.44.44,0,0,0,.15-.12.32.32,0,0,1,.17-.1.09.09,0,0,1,.07.13,2.1,2.1,0,0,0-.15.3,1.61,1.61,0,0,1-.17.28,1.39,1.39,0,0,1-.23.25,2.28,2.28,0,0,0-.22.22,2.38,2.38,0,0,1-.87.44,2,2,0,0,1-.92.07,1.77,1.77,0,0,1-1.42-.81,2.77,2.77,0,0,1-.26-1.58,8,8,0,0,1,.44-2c.24-.69.49-1.33.75-1.93s.46-1.1.62-1.51.17-.65.06-.7a1.39,1.39,0,0,0-.89.32,5.59,5.59,0,0,0-1,.83,7.37,7.37,0,0,0-.86,1.06,6.58,6.58,0,0,0-.57,1.05c-.29.48-.53.93-.73,1.35s-.4.88-.61,1.37a1.06,1.06,0,0,1-.2.29.53.53,0,0,1-.27.16,1.18,1.18,0,0,1-.71-.08,1.16,1.16,0,0,1-.44-.72,4.18,4.18,0,0,1-.09-1,8.33,8.33,0,0,1,.11-1c.06-.34.1-.6.15-.8.1-.44.21-.89.35-1.33s.28-.88.43-1.28a7.13,7.13,0,0,1,.49-1.11,3.64,3.64,0,0,1,.54-.82,1.43,1.43,0,0,1,.85-.64,1,1,0,0,1,.66,0,.72.72,0,0,1,.39.48,1.75,1.75,0,0,1,0,.91q-.14.4-.3.84c-.07.15-.14.29-.19.41l-.18.37-.16.36a4.18,4.18,0,0,0-.15.43A8,8,0,0,1,144,24.7a5.58,5.58,0,0,1,1.34-1,2.93,2.93,0,0,1,1.32-.37A1.63,1.63,0,0,1,147.75,23.75Z" transform="translate(-0.5 -2.01)"/><path class="cls-2" d="M156.17,23a4.09,4.09,0,0,0-.76.54q-.37.33-.75.72a10.4,10.4,0,0,0-.7.79c-.22.27-.42.53-.61.78s-.44.64-.68,1-.47.75-.69,1.14-.42.77-.6,1.15a5.72,5.72,0,0,0-.39,1,2.7,2.7,0,0,1-.27.5,2.14,2.14,0,0,1-.37.42,1.72,1.72,0,0,1-.46.25.94.94,0,0,1-.5,0,.58.58,0,0,1-.32-.13.9.9,0,0,1-.2-.28,1.35,1.35,0,0,1-.11-.34,2.16,2.16,0,0,1,0-.35,8.29,8.29,0,0,1,.12-1.87,16.66,16.66,0,0,1,.41-1.8c.16-.48.32-.95.49-1.42a14.78,14.78,0,0,1,.58-1.37,5.74,5.74,0,0,1,.4-.78,6.24,6.24,0,0,1,.53-.71,1.37,1.37,0,0,1,1.41-.66.78.78,0,0,1,.42.26.87.87,0,0,1,.17.42,2.11,2.11,0,0,1,0,.5c0,.18-.07.35-.11.52s-.1.32-.18.52-.15.42-.22.62-.14.4-.21.59a1.48,1.48,0,0,0-.09.4c.28-.37.61-.77,1-1.21A14.06,14.06,0,0,1,154.62,23a7.85,7.85,0,0,1,1.3-1,3.16,3.16,0,0,1,1.31-.47,1,1,0,0,1,1,.37,1.3,1.3,0,0,1,.33,1,7.29,7.29,0,0,1-.27,1.66c-.15.51-.3,1-.45,1.58l.93-1.05a8.87,8.87,0,0,1,1.2-1.08,1.65,1.65,0,0,1,.66-.3.88.88,0,0,1,.77.2,1.21,1.21,0,0,1,.32.66,2.79,2.79,0,0,1,0,.87c-.05.31-.1.59-.15.83-.1.47-.22.94-.36,1.42l-.39,1.4c-.13.47-.24.92-.34,1.37a10.47,10.47,0,0,0-.21,1.31,2.71,2.71,0,0,0,0,1,1.41,1.41,0,0,0,.27.63.51.51,0,0,0,.46.17,1,1,0,0,0,.57-.47,1.85,1.85,0,0,0,.24-.4,1.85,1.85,0,0,1,.25-.37q.07-.1.15-.09a.2.2,0,0,1,.09.09.38.38,0,0,1,0,.16.39.39,0,0,1,0,.16,2.21,2.21,0,0,1-.16.5,1.74,1.74,0,0,1-.32.51,2.79,2.79,0,0,1-.45.46,1.69,1.69,0,0,1-.58.3,1.61,1.61,0,0,1-1.21-.2,2.37,2.37,0,0,1-.78-.88,4.43,4.43,0,0,1-.42-1.21,7.16,7.16,0,0,1-.13-1.23q0-.61.12-1.23a10.54,10.54,0,0,1,.27-1.24,14,14,0,0,1,.39-1.42,7.11,7.11,0,0,0,.31-1.33,7.46,7.46,0,0,0-.66.79l-.53.75c-.34.46-.67.94-1,1.43s-.61,1-.88,1.51a2.38,2.38,0,0,1-.36.55,1.34,1.34,0,0,1-1.05.55,1,1,0,0,1-.85-.63,1.59,1.59,0,0,1-.1-1.37c.11-.35.22-.7.33-1s.22-.68.33-1,.25-.74.37-1.12a10.9,10.9,0,0,1,.42-1.13c.14-.32.28-.64.41-1S156.05,23.24,156.17,23Z" transform="translate(-0.5 -2.01)"/><path class="cls-2" d="M163.37,25.2q.09-.18.18-.33a3.28,3.28,0,0,1,.2-.31,1.59,1.59,0,0,1,1.3-.64.92.92,0,0,1,.36.07.93.93,0,0,1,.33.21,1,1,0,0,1,.24.32.74.74,0,0,1,.07.42,1.91,1.91,0,0,1-.17.79c-.28.68-.57,1.33-.85,1.93a8.54,8.54,0,0,0-.62,1.8,1.21,1.21,0,0,0,.07.61c.07.18.23.24.49.2a2.15,2.15,0,0,0,1-.6,11.14,11.14,0,0,0,1.17-1.2c.39-.45.74-.9,1.07-1.34l.74-1,.26-.32c.13-.08.21-.06.23.06a.41.41,0,0,1,0,.31l-.09.24a2.29,2.29,0,0,0-.1.23,12.2,12.2,0,0,1-.81,1.33c-.33.47-.68.93-1.05,1.37a13.68,13.68,0,0,1-1.18,1.22,5.84,5.84,0,0,1-1.18.87,2.5,2.5,0,0,1-1.17.28,1.81,1.81,0,0,1-1.62-1.06,2.15,2.15,0,0,1-.21-1.09,6.34,6.34,0,0,1,.42-2.25Q162.88,26.27,163.37,25.2ZM165,22.68a1.08,1.08,0,0,1-.24-.67,1.35,1.35,0,0,1,.18-.67,1.65,1.65,0,0,1,.5-.56,1.59,1.59,0,0,1,.77-.31,1.71,1.71,0,0,1,1.14.17c.27.17.34.5.23,1a1.78,1.78,0,0,1-.43.73,2.31,2.31,0,0,1-.71.55,1.52,1.52,0,0,1-.79.16A.84.84,0,0,1,165,22.68Z" transform="translate(-0.5 -2.01)"/></g><g class="cls-1"><path class="cls-2" d="M90.79,45.41a3.29,3.29,0,0,0,1-.75,11.12,11.12,0,0,0,.79-1A3.26,3.26,0,0,0,93,43a2.37,2.37,0,0,0,.18-.8,1.36,1.36,0,0,0-.15-.7.89.89,0,0,0-.61-.41,2.27,2.27,0,0,0-1.1.19,4.94,4.94,0,0,0-1.07.6,7.44,7.44,0,0,0-1,.81c-.3.29-.56.57-.79.82a7.84,7.84,0,0,0-.68,1,6.14,6.14,0,0,0-.52,1.06,5.67,5.67,0,0,0-.22.66,4.14,4.14,0,0,0-.15.68,3.79,3.79,0,0,0,0,1.07,2.28,2.28,0,0,0,.38.92,1.77,1.77,0,0,0,1.1.54,2.52,2.52,0,0,0,1.19-.19,5.46,5.46,0,0,0,1.22-.73,11.5,11.5,0,0,0,1.19-1c.38-.37.74-.75,1.07-1.14s.63-.73.88-1a.53.53,0,0,1,.32-.15c.08,0,.06.09,0,.27a3.13,3.13,0,0,1-.23.37c-.43.58-.87,1.14-1.31,1.66a14.09,14.09,0,0,1-1.38,1.4,8.91,8.91,0,0,1-1.49,1,5.25,5.25,0,0,1-1.61.57,2.54,2.54,0,0,1-.87,0A2.44,2.44,0,0,1,86,49.56a2.6,2.6,0,0,1-.42-.67,3.73,3.73,0,0,1-.24-1,5.57,5.57,0,0,1,0-1,6.58,6.58,0,0,1,.59-2.09,8.93,8.93,0,0,1,1.24-1.95,8.76,8.76,0,0,1,1.74-1.58,7.63,7.63,0,0,1,2.13-1,3.46,3.46,0,0,1,1.38-.11,1.52,1.52,0,0,1,1,.53,1.46,1.46,0,0,1,.33.61,2.24,2.24,0,0,1,0,.74,4.48,4.48,0,0,1-.34,1.21,5.88,5.88,0,0,1-.65,1.14,6.22,6.22,0,0,1-.89,1,5.13,5.13,0,0,1-1.07.69,1.52,1.52,0,0,1-.76.1.86.86,0,0,1-.53-.26,1,1,0,0,1-.24-.56,1.56,1.56,0,0,1,.1-.75,3.16,3.16,0,0,1,.39-.78,3.56,3.56,0,0,1,.57-.66,2.32,2.32,0,0,1,.3-.22,1.26,1.26,0,0,1,.34-.15,1,1,0,0,1,.34,0,.63.63,0,0,1,.29.1.39.39,0,0,1,.13.15.21.21,0,0,1-.08.26A2.18,2.18,0,0,0,91,44a7.35,7.35,0,0,0-.46,1,2,2,0,0,0,0,.24.39.39,0,0,0,0,.19.13.13,0,0,0,.1.09A.33.33,0,0,0,90.79,45.41Z" transform="translate(-0.5 -2.01)"/></g><g class="cls-1"><path class="cls-2" d="M93.06,46.07a4.1,4.1,0,0,1,1.1-1.25,3.41,3.41,0,0,1,.7-.38,1.73,1.73,0,0,1,.74-.1.72.72,0,0,1,.36.14.32.32,0,0,1,.11.12q.06.13-.09.15a1.19,1.19,0,0,0-.53.28,4.06,4.06,0,0,0-.54.6,5.22,5.22,0,0,0-.46.77,5,5,0,0,0-.32.79,2,2,0,0,0-.08.69.49.49,0,0,0,.24.41.67.67,0,0,0,.46-.09,2.31,2.31,0,0,0,.53-.4,5.8,5.8,0,0,0,.51-.63,7.17,7.17,0,0,0,.46-.75,6.24,6.24,0,0,0,.33-.76,2.94,2.94,0,0,0,.18-.69.92.92,0,0,0-.07-.38,1,1,0,0,0-.21-.28.79.79,0,0,0-.29-.18,1.16,1.16,0,0,0-.32-.08l-.28,0-.29,0h-.1s0,0,0,0,0-.05,0-.06a.51.51,0,0,1,.16-.11,2.48,2.48,0,0,1,.62-.24,1.83,1.83,0,0,1,.66,0,1.19,1.19,0,0,1,.75.52,1.86,1.86,0,0,1,.28.87,3.25,3.25,0,0,1-.2,1.11,4.13,4.13,0,0,1-.53,1,5,5,0,0,1-.79.86,4.24,4.24,0,0,1-1,.63,2.1,2.1,0,0,1-.73.17,1.8,1.8,0,0,1-.7-.08,1.59,1.59,0,0,1-.57-.32,1,1,0,0,1-.32-.53,2.22,2.22,0,0,1-.06-.95A2.78,2.78,0,0,1,93.06,46.07Z" transform="translate(-0.5 -2.01)"/></g><g class="cls-1"><path class="cls-2" d="M100.65,47l-.5.47c-.17.16-.33.31-.51.46a4,4,0,0,1-.54.38,2,2,0,0,1-.6.24,1,1,0,0,1-.42,0,.94.94,0,0,1-.35-.2.79.79,0,0,1-.23-.31.86.86,0,0,1-.09-.39,2.82,2.82,0,0,1,.09-.57,3.21,3.21,0,0,1,.22-.54,3.58,3.58,0,0,1,.3-.49,2.86,2.86,0,0,1,.36-.41,4.79,4.79,0,0,1,.52-.44,3.76,3.76,0,0,1,.61-.36,2.16,2.16,0,0,1,.64-.2,1.19,1.19,0,0,1,.65.06l0-.07a.13.13,0,0,0,0-.06c.08-.24.15-.49.23-.73s.15-.49.24-.73.28-.65.42-.93a3.59,3.59,0,0,1,.52-.79,1.86,1.86,0,0,1,.29-.27l.31-.22a1.1,1.1,0,0,1,.93-.15.62.62,0,0,1,.49.65,3.42,3.42,0,0,1-.18.81,6.88,6.88,0,0,1-.32.74c-.22.4-.43.78-.65,1.14s-.44.71-.67,1.06a1.08,1.08,0,0,1,0-.26c0-.13,0-.26.06-.41s.06-.28.09-.41a1.15,1.15,0,0,1,.11-.28l.54-1a5.87,5.87,0,0,0,.42-1,.79.79,0,0,0,0-.33.17.17,0,0,0-.11-.13.22.22,0,0,0-.18.07.58.58,0,0,0-.2.25,5.28,5.28,0,0,0-.53,1.15q-.14.39-.24.78l-.18.79c-.06.37-.12.75-.15,1.12a10.69,10.69,0,0,0-.06,1.13v.29c0,.12,0,.24,0,.36s0,.24.06.34a.67.67,0,0,0,.12.24.27.27,0,0,0,.27,0,1.78,1.78,0,0,0,.34-.3c.12-.13.25-.29.39-.47s.26-.37.39-.57.24-.39.35-.59.21-.35.28-.5l.07-.1.09-.08a.1.1,0,0,1,.1,0,.05.05,0,0,1,0,.07.33.33,0,0,1,0,.22,9.3,9.3,0,0,1-.89,1.73,5.72,5.72,0,0,1-.61.81,3.86,3.86,0,0,1-.68.62,1.78,1.78,0,0,1-.45.2.7.7,0,0,1-.45,0,1.24,1.24,0,0,1-.37-.35,2.17,2.17,0,0,1-.22-.46,2.83,2.83,0,0,1-.13-.5C100.69,47.35,100.66,47.19,100.65,47Zm0-1.7a.79.79,0,0,0-.58.16,3.05,3.05,0,0,0-.57.52,3.2,3.2,0,0,0-.46.65,1.84,1.84,0,0,0-.23.56,1.3,1.3,0,0,0,0,.27c0,.11,0,.18.13.2a.22.22,0,0,0,.16,0,.61.61,0,0,0,.17-.07l.15-.11.14-.1c.22-.2.43-.4.62-.61a3.36,3.36,0,0,0,.49-.61c0-.14,0-.28,0-.44Z" transform="translate(-0.5 -2.01)"/><path class="cls-2" d="M104.91,46.92a1.19,1.19,0,0,1,0-.55,1,1,0,0,0,.38-.19,3.09,3.09,0,0,0,.38-.35,3.15,3.15,0,0,0,.31-.41,2.12,2.12,0,0,0,.2-.4.43.43,0,0,0,0-.29c0-.08-.1-.11-.22-.11a2.48,2.48,0,0,0-.65.52,2.91,2.91,0,0,0-.47.69,2.65,2.65,0,0,0-.24.77,1.81,1.81,0,0,0,0,.77.71.71,0,0,0,.53.52,1.15,1.15,0,0,0,.77-.13,7.8,7.8,0,0,0,1.38-.94c.42-.36.81-.72,1.18-1.08l.19-.19.16-.13a.07.07,0,0,1,.09,0s0,0,0,.08a.17.17,0,0,1,0,.07l0,.07a16.83,16.83,0,0,1-1.43,1.59,5.9,5.9,0,0,1-1.71,1.19,3.11,3.11,0,0,1-1,.22,1.84,1.84,0,0,1-.89-.17,1.4,1.4,0,0,1-.62-.56,1.57,1.57,0,0,1-.18-1,3.36,3.36,0,0,1,.66-1.55A3.76,3.76,0,0,1,105,44.34a2.84,2.84,0,0,1,.79-.27,2,2,0,0,1,.76,0,1.13,1.13,0,0,1,.55.26.7.7,0,0,1,.19.57,1.34,1.34,0,0,1-.26.7,2.45,2.45,0,0,1-.58.58,3.84,3.84,0,0,1-.76.46A5,5,0,0,1,104.91,46.92Z" transform="translate(-0.5 -2.01)"/><path class="cls-2" d="M115.57,47.42a5.71,5.71,0,0,1-.68.45,4.69,4.69,0,0,1-.72.33,3.13,3.13,0,0,1-1.18.09,1.9,1.9,0,0,1-1-.46,3.28,3.28,0,0,1-.44-.56,2.34,2.34,0,0,1-.26-.67,3.79,3.79,0,0,1,0-1,5.55,5.55,0,0,1,.21-1,5.21,5.21,0,0,1,.4-.94c.16-.3.33-.58.51-.85A10,10,0,0,1,114,40.94a7.14,7.14,0,0,1,2.09-1.24c.23-.07.46-.14.7-.19a3,3,0,0,1,.72-.06,2.55,2.55,0,0,1,.67.12,1.79,1.79,0,0,1,.61.35,1.26,1.26,0,0,1,.36.53,1.61,1.61,0,0,1,.07.67,3.51,3.51,0,0,1-.76,1.83,6.21,6.21,0,0,1-.52.63c-.2.2-.4.39-.61.57s-.44.28-.66.4a1.7,1.7,0,0,1-.69.19.85.85,0,0,1-.49-.13.83.83,0,0,1-.29-.33.89.89,0,0,1-.1-.44,1.25,1.25,0,0,1,.07-.47,2.86,2.86,0,0,1,.33-.68,2.82,2.82,0,0,1,.52-.58,1.94,1.94,0,0,1,.47-.25,2.1,2.1,0,0,1,.5-.09.54.54,0,0,1,.42.16c.14.16.12.31-.07.44a2.22,2.22,0,0,0-.68.73,5.3,5.3,0,0,0-.39.9,2,2,0,0,0,.65-.3,3,3,0,0,0,.56-.46,4.41,4.41,0,0,0,.48-.56c.14-.2.28-.4.4-.6a2.25,2.25,0,0,0,.22-.81.87.87,0,0,0-.13-.57.8.8,0,0,0-.49-.3,1.78,1.78,0,0,0-.79,0,4.61,4.61,0,0,0-1.32.58,6.21,6.21,0,0,0-1.07.91,8.17,8.17,0,0,0-.87,1.14,11.83,11.83,0,0,0-.7,1.24,8.61,8.61,0,0,0-.31.83,5.84,5.84,0,0,0-.2.88,2.59,2.59,0,0,0,0,.79.79.79,0,0,0,.32.54,1.35,1.35,0,0,0,.91.13,3.3,3.3,0,0,0,1-.38,5.62,5.62,0,0,0,1-.75,8.3,8.3,0,0,0,.9-1l.25-.31a2.61,2.61,0,0,1,.27-.31.29.29,0,0,1,.22-.09.12.12,0,0,1,.15.09.28.28,0,0,1,0,.22c-.44,1-.84,1.93-1.21,2.91a14.82,14.82,0,0,0-.79,3s0,.07,0,.08l.11,0,.1,0a.05.05,0,0,1,0,.07.91.91,0,0,1-.29.3,2.93,2.93,0,0,1-.43.23,3.18,3.18,0,0,1-.47.15,1.83,1.83,0,0,1-.42.07.3.3,0,0,1-.28-.34,4.89,4.89,0,0,1,.21-1.09,8.44,8.44,0,0,1,.38-1c.14-.33.29-.66.45-1S115.44,47.74,115.57,47.42Z" transform="translate(-0.5 -2.01)"/><path class="cls-2" d="M119.39,46.92a1.37,1.37,0,0,1,.06-.55,1,1,0,0,0,.38-.19,3,3,0,0,0,.37-.35,2.51,2.51,0,0,0,.32-.41,2.12,2.12,0,0,0,.2-.4.43.43,0,0,0,0-.29.21.21,0,0,0-.22-.11,2.37,2.37,0,0,0-.66.52,2.87,2.87,0,0,0-.46.69,3,3,0,0,0-.25.77,2,2,0,0,0,0,.77.73.73,0,0,0,.53.52,1.14,1.14,0,0,0,.77-.13,7.13,7.13,0,0,0,1.38-.94c.42-.36.81-.72,1.18-1.08a1.8,1.8,0,0,1,.2-.19.7.7,0,0,1,.16-.13.07.07,0,0,1,.09,0s0,0,0,.08a.19.19,0,0,1,0,.07.25.25,0,0,1,0,.07A16.74,16.74,0,0,1,122,47.24a6.18,6.18,0,0,1-1.71,1.19,3.23,3.23,0,0,1-1,.22,1.86,1.86,0,0,1-.9-.17,1.45,1.45,0,0,1-.62-.56,1.57,1.57,0,0,1-.17-1,3.24,3.24,0,0,1,.65-1.55,3.9,3.9,0,0,1,1.27-1.06,2.74,2.74,0,0,1,.79-.27,1.93,1.93,0,0,1,.75,0,1,1,0,0,1,.55.26.67.67,0,0,1,.19.57,1.32,1.32,0,0,1-.25.7,2.66,2.66,0,0,1-.58.58,4.16,4.16,0,0,1-.76.46A5.13,5.13,0,0,1,119.39,46.92Z" transform="translate(-0.5 -2.01)"/><path class="cls-2" d="M123.63,46.92a1.09,1.09,0,0,1,.06-.55,1,1,0,0,0,.37-.19,3.09,3.09,0,0,0,.38-.35,2.45,2.45,0,0,0,.31-.41,2.12,2.12,0,0,0,.2-.4.37.37,0,0,0,0-.29c0-.08-.1-.11-.22-.11a2.48,2.48,0,0,0-.65.52,2.91,2.91,0,0,0-.47.69,2.65,2.65,0,0,0-.24.77,1.81,1.81,0,0,0,0,.77.71.71,0,0,0,.53.52,1.15,1.15,0,0,0,.77-.13,7.8,7.8,0,0,0,1.38-.94c.42-.36.81-.72,1.18-1.08l.19-.19.16-.13a.07.07,0,0,1,.09,0,.05.05,0,0,1,0,.08.19.19,0,0,1,0,.07l0,.07a16.83,16.83,0,0,1-1.43,1.59,5.9,5.9,0,0,1-1.71,1.19,3.11,3.11,0,0,1-1,.22,1.84,1.84,0,0,1-.89-.17,1.4,1.4,0,0,1-.62-.56,1.51,1.51,0,0,1-.17-1,3.24,3.24,0,0,1,.65-1.55,3.76,3.76,0,0,1,1.26-1.06,3,3,0,0,1,.79-.27,2,2,0,0,1,.76,0,1.09,1.09,0,0,1,.55.26.7.7,0,0,1,.19.57,1.34,1.34,0,0,1-.26.7,2.45,2.45,0,0,1-.58.58,3.84,3.84,0,0,1-.76.46A4.69,4.69,0,0,1,123.63,46.92Z" transform="translate(-0.5 -2.01)"/><path class="cls-2" d="M127.81,46a1.73,1.73,0,0,0-.21.13.32.32,0,0,0-.13.18c0,.26-.09.51-.12.76l-.12.76a.91.91,0,0,1-.07.25.48.48,0,0,1-.17.21.64.64,0,0,1-.45.16.75.75,0,0,1-.38-.15.58.58,0,0,1-.14-.49,11.94,11.94,0,0,1,.18-1.52c.09-.49.2-1,.33-1.43q.12-.46.27-1a10.41,10.41,0,0,1,.37-1.07,9,9,0,0,1,.51-1,4.29,4.29,0,0,1,.66-.89,3.23,3.23,0,0,1,.84-.64,2.41,2.41,0,0,1,1-.28.58.58,0,0,1,.54.19.74.74,0,0,1,.19.55,1.91,1.91,0,0,1-.1.54,2.55,2.55,0,0,1-.24.5,2.36,2.36,0,0,1-.32.44,3.34,3.34,0,0,1-.37.38,4.29,4.29,0,0,1-.76.54c-.24.13-.47.24-.66.32a1.14,1.14,0,0,1,.15-.34l.18-.33a3,3,0,0,0,.66-.47,4.15,4.15,0,0,0,.53-.59,1.43,1.43,0,0,0,.16-.24,2.55,2.55,0,0,0,.13-.29,1.09,1.09,0,0,0,.07-.3.61.61,0,0,0,0-.27c0-.1-.06-.14-.11-.13l-.17.06a4.07,4.07,0,0,0-.91.94,8.38,8.38,0,0,0-.68,1.21A10.33,10.33,0,0,0,128,44c-.13.44-.23.85-.31,1.22q.53-.54,1.08-1a4.84,4.84,0,0,1,1.12-.71,1.21,1.21,0,0,1,.79-.06l.09,0a.45.45,0,0,1,.29.3.54.54,0,0,1-.09.43.79.79,0,0,1-.17.2.72.72,0,0,1-.22.15.38.38,0,0,1-.19.05.11.11,0,0,1-.09-.1.71.71,0,0,1,.1-.2.48.48,0,0,0,0-.21h-.12a9.29,9.29,0,0,0-.82.48,4.28,4.28,0,0,0-.72.63,8,8,0,0,0,.07.82,6,6,0,0,0,.15.85,5.8,5.8,0,0,0,.26.77,2,2,0,0,0,.34.58.46.46,0,0,0,.41.11,1.39,1.39,0,0,0,.52-.21,3.36,3.36,0,0,0,.56-.43c.19-.17.38-.35.56-.54s.36-.38.53-.56.31-.35.44-.49l.08-.08.09-.08a.08.08,0,0,1,.08,0,0,0,0,0,1,0,0,.26.26,0,0,1,0,.11,1.14,1.14,0,0,1-.18.37l-.65.84a9.38,9.38,0,0,1-.72.82,5,5,0,0,1-.82.65,2.28,2.28,0,0,1-.95.32,1.06,1.06,0,0,1-.79-.31,2.27,2.27,0,0,1-.52-.77,4.59,4.59,0,0,1-.32-1Q127.86,46.46,127.81,46Z" transform="translate(-0.5 -2.01)"/></g><path class="cls-3" d="M23,10.64A22.54,22.54,0,1,1,.5,33.18,22.54,22.54,0,0,1,23,10.64Z" transform="translate(-0.5 -2.01)"/><path class="cls-4" d="M30.31,56.9c-1,0-2.12-.08-3.14-.14-1.89-.1-4.85.11-5,2.6a2.58,2.58,0,0,0,1,2.17,3.38,3.38,0,0,0,1.72,2.2c1.28.64,2.77,0,4-.45a5.62,5.62,0,0,1,1.41-.36c.73,0,1.48,0,2.22,0a30.64,30.64,0,0,0,3.31-.21,11.88,11.88,0,0,0,4.33-1.22,5.65,5.65,0,0,0,2.75-4.7,5.09,5.09,0,0,0-2.07-4.62c-1.51-1-3.68-.66-5.52,0l-.16-1.84L27.6,54.09l1.26,1.33,1.33,1.37.12.11Z" transform="translate(-0.5 -2.01)"/><path class="cls-5" d="M34,52.4l.15,1.71s4-2.07,6-.82,2,5.49-.62,7-7.64,1.2-9.26,1.29-3.65,1.49-4.74,1a2.07,2.07,0,0,1-1.06-1.79s-1-.41-.91-1.27,1-1.47,3.59-1.32,3.8.14,3.8.14L34,57.13a15.84,15.84,0,0,1,2.91-1.68c1.12-.4-.83-.33-2.53.66s-1.78.8-1.79,1a33.24,33.24,0,0,1-2.7-2.64Z" transform="translate(-0.5 -2.01)"/><path class="cls-6" d="M25.92,58.12a9.14,9.14,0,0,1,1.17,0c2.64.14,3.8.14,3.8.14L34,57.12l.49-.34h0a10.37,10.37,0,0,1,2.9-1.14c1.65-.35,3.58.09,2.43,2.16s-4,2.8-6.18,2.93-8.53-.53-8.53,0l.85-2.56ZM36.5,55.28a7.27,7.27,0,0,0-2.16.83c-1.7,1-1.78.79-1.79,1s-.45-.35-1-.88a13.59,13.59,0,0,0,1.8-.69c0-.15.47-.79,1.89-1.39s3.94-.08,2.22.66a8.59,8.59,0,0,0-1,.48Z" transform="translate(-0.5 -2.01)"/><path class="cls-4" d="M17.94,56.9c1,0,2.11-.08,3.13-.14,1.9-.1,4.85.11,5,2.6a2.55,2.55,0,0,1-1,2.17,3.37,3.37,0,0,1-1.73,2.2c-1.28.64-2.77,0-4-.46A5.4,5.4,0,0,0,18,62.92c-.73,0-1.49,0-2.22,0a30.65,30.65,0,0,1-3.32-.2A11.78,11.78,0,0,1,8.1,61.46a5.63,5.63,0,0,1-2.76-4.7,5.1,5.1,0,0,1,2.08-4.63c1.5-1,3.68-.65,5.51,0l.16-1.84,7.54,3.81-1.26,1.33c-.44.47-.88.92-1.33,1.38l-.11.11Z" transform="translate(-0.5 -2.01)"/><path class="cls-5" d="M14.29,52.4l-.15,1.71s-4-2.07-6-.82-2,5.49.62,7,7.65,1.2,9.27,1.29,3.65,1.49,4.73,1a2,2,0,0,0,1.06-1.79s1-.41.91-1.27-1-1.47-3.59-1.32-3.8.14-3.8.14l-3.07-1.15a16,16,0,0,0-2.92-1.68c-1.12-.4.83-.33,2.54.66s1.78.8,1.78,1a31.7,31.7,0,0,0,2.7-2.64Z" transform="translate(-0.5 -2.01)"/><path class="cls-6" d="M22.41,58.12q-.63,0-1.26,0c-2.64.14-3.8.14-3.8.14l-3.07-1.15s-.4-.29-.94-.63A10.65,10.65,0,0,0,11,55.63c-1.63-.35-3.57.1-2.43,2.18s4,2.79,6.19,2.93,8.53-.54,8.53-.06l-.85-2.56Zm-10.52-2.8a7.14,7.14,0,0,1,2,.79c1.71,1,1.79.8,1.79,1s.47-.36,1-.91A11,11,0,0,1,15,55.54c-.05-.15-.47-.79-1.89-1.39s-3.95-.09-2.22.65a9.78,9.78,0,0,1,1,.52Z" transform="translate(-0.5 -2.01)"/><path class="cls-7" d="M14.62,37s1.82,8.89,2.49,11.16,4.89,2.75,6.4,2.75h.11c1.51,0,5.74-.49,6.4-2.75S32.52,37,32.52,37l-8.94,1-8.95-1Z" transform="translate(-0.5 -2.01)"/><path class="cls-8" d="M14.62,37l.55,2.62A22.62,22.62,0,0,0,32,39.44L32.51,37l-8.94,1-9-1Z" transform="translate(-0.5 -2.01)"/><path class="cls-3" d="M15.63,41.76c.53,2.49,1.15,5.25,1.48,6.38.67,2.26,4.89,2.75,6.4,2.75h.11c1.51,0,5.74-.49,6.4-2.75.35-1.2,1-4.23,1.58-6.84-.83-.7.09-2.32-.47-1.83a8.63,8.63,0,0,0-1.25,2.34s-1.55-.14-5.91-.09-6.8,0-6.8,0-.88-1.47-.88-1.51A3.48,3.48,0,0,1,15.63,41.76Z" transform="translate(-0.5 -2.01)"/><path class="cls-4" d="M33.64,46.27l-.43.15c-.62.19-1.26.35-1.89.5-.26.07-.53.13-.78.22a1.58,1.58,0,0,0-1.24,1.7l.44,3.74.18,1.51,1.51-.25A20.54,20.54,0,0,0,37,52c2.62-1.32,4.83-3.56,4.07-6.74a14.53,14.53,0,0,0-4.48-7,21.87,21.87,0,0,0-3.4-2.6L32,35l-.58.92a3.93,3.93,0,0,1,1.29,1.2,10.68,10.68,0,0,0-1.95,3.17c-.73,1.89-.17,2.69.09,3.11.84.62,2.18.82,2.78,2.88Z" transform="translate(-0.5 -2.01)"/><path class="cls-5" d="M37.85,41.86a10.92,10.92,0,0,1,1.83,3.79c1.24,5.15-8.49,6.75-8.49,6.75l-.45-3.73c0-.31,4.26-.71,5.22-2.21a2,2,0,0,0,.19-1.92,1.73,1.73,0,0,1-1,1.31c-.11,0-.22-.35-1-1.25a3.84,3.84,0,0,1,1.25-1.91,4,4,0,0,1,2.47-.84Z" transform="translate(-0.5 -2.01)"/><path class="cls-6" d="M30.9,50l-.15-1.28c0-.31,4.26-.71,5.22-2.21a2,2,0,0,0,.19-1.92,1.73,1.73,0,0,1-1,1.31c-.11,0-.22-.35-1-1.25a3.84,3.84,0,0,1,1.25-1.91,4,4,0,0,1,2.47-.84,11.35,11.35,0,0,0-2.24,1.06c-.74.54.09,1.09.14,1.58s.24-.85.49-.58a2.85,2.85,0,0,1-.11,3.76c-1,1.26-3.59,1.95-5.23,2.27Z" transform="translate(-0.5 -2.01)"/><path class="cls-7" d="M32.48,37a20.73,20.73,0,0,1,4.85,4.2,4.62,4.62,0,0,0-2.39,1A4.44,4.44,0,0,0,33.58,44a8.75,8.75,0,0,0-2.07-1.7c-1.07-.56-.79-2.65-.17-4A3.05,3.05,0,0,1,32.49,37Z" transform="translate(-0.5 -2.01)"/><path class="cls-8" d="M32.48,37a18.49,18.49,0,0,1,1.79,1.25,16.8,16.8,0,0,1-3.41,1.66,6.2,6.2,0,0,1,.48-1.57A3.08,3.08,0,0,1,32.49,37Z" transform="translate(-0.5 -2.01)"/><path class="cls-9" d="M37.85,41.86a10.92,10.92,0,0,1,1.83,3.79c.55,2.29-1.06,3.87-3,4.93,1.69-1.51,2.75-3.46,2.14-5.65a9.4,9.4,0,0,0-1.68-3,4.37,4.37,0,0,1,.72-.06Z" transform="translate(-0.5 -2.01)"/><path class="cls-8" d="M33.27,37.49a20.92,20.92,0,0,1,4.06,3.69,5.4,5.4,0,0,0-.7.13,28.26,28.26,0,0,0-3.51-3.41Z" transform="translate(-0.5 -2.01)"/><path class="cls-3" d="M37.13,41.21A4.44,4.44,0,0,0,33.58,44a9,9,0,0,0-2.07-1.7c-.73-.38-.83-1.47-.63-2.55a1.37,1.37,0,0,1,.25-.29c.56-.49-.36,1.13.47,1.83l1.86,1.57s1.72-1.84,3.67-1.66Z" transform="translate(-0.5 -2.01)"/><path class="cls-4" d="M13.47,46.27l.42.15c.63.19,1.26.35,1.9.5.26.07.53.13.78.22a1.59,1.59,0,0,1,1.24,1.7c-.15,1.25-.29,2.49-.45,3.74l-.18,1.51-1.51-.25a20.48,20.48,0,0,1-5.6-1.8C7.45,50.72,5.23,48.48,6,45.3a14.53,14.53,0,0,1,4.48-7,21,21,0,0,1,3.4-2.6L15.1,35l.57.92a4,4,0,0,0-1.29,1.2,10.28,10.28,0,0,1,1.95,3.17c.73,1.89.17,2.69-.09,3.11-.84.62-2.18.82-2.78,2.88Z" transform="translate(-0.5 -2.01)"/><path class="cls-5" d="M9.25,41.86a11,11,0,0,0-1.84,3.79c-1.23,5.15,8.5,6.75,8.5,6.75l.45-3.73c0-.31-4.27-.71-5.22-2.21A2,2,0,0,1,11,44.54a1.92,1.92,0,0,0,1,1.4c.11,0,.23-.44,1-1.34a3.79,3.79,0,0,0-1.25-1.91,4,4,0,0,0-2.47-.84Z" transform="translate(-0.5 -2.01)"/><path class="cls-6" d="M16.15,50.36l.2-1.69c0-.31-4.26-.71-5.22-2.21a2,2,0,0,1-.19-1.92,1.92,1.92,0,0,0,1,1.4c.11,0,.23-.44,1-1.34a3.8,3.8,0,0,0-.83-1.51,6.88,6.88,0,0,0-.66,1.73L11,43.71A4.44,4.44,0,0,0,10.8,47a5.26,5.26,0,0,0,2.38,2.38s1.2.5,3,1Z" transform="translate(-0.5 -2.01)"/><path class="cls-7" d="M14.62,37a20.88,20.88,0,0,0-4.84,4.2,4.65,4.65,0,0,1,2.39,1A4.44,4.44,0,0,1,13.53,44a8.75,8.75,0,0,1,2.07-1.7c1.07-.56.79-2.65.17-4A3.18,3.18,0,0,0,14.62,37Z" transform="translate(-0.5 -2.01)"/><path class="cls-8" d="M14.62,37a18.48,18.48,0,0,0-1.92,1.36A17.34,17.34,0,0,0,16.27,40a6.31,6.31,0,0,0-.5-1.69A3.08,3.08,0,0,0,14.62,37Z" transform="translate(-0.5 -2.01)"/><path class="cls-9" d="M9.24,41.86A10.77,10.77,0,0,0,7.4,45.65c-.55,2.29,1.06,3.87,3,4.93-1.69-1.51-2.75-3.46-2.14-5.65a9.4,9.4,0,0,1,1.68-3,4.37,4.37,0,0,0-.72-.06Z" transform="translate(-0.5 -2.01)"/><path class="cls-8" d="M13.82,37.49a20.92,20.92,0,0,0-4.06,3.69,5.4,5.4,0,0,1,.7.13A28.26,28.26,0,0,1,14,37.9Z" transform="translate(-0.5 -2.01)"/><path class="cls-3" d="M10.32,41.26A4.45,4.45,0,0,1,13.53,44a8.75,8.75,0,0,1,2.07-1.7c.64-.33.8-1.22.69-2.16a3.48,3.48,0,0,1-.66,1.6c-.6.77-2.57.66-2.57.66a2.61,2.61,0,0,0-1.43-1,3.85,3.85,0,0,0-1.31-.19Z" transform="translate(-0.5 -2.01)"/><path class="cls-4" d="M12.79,55.61H34.35a.67.67,0,0,1,.66.66v3.28a.66.66,0,0,1-.66.65H12.79a.65.65,0,0,1-.65-.65V56.27A.66.66,0,0,1,12.79,55.61Z" transform="translate(-0.5 -2.01)"/><path class="cls-3" d="M14.2,57.08H32.94a.6.6,0,0,1,.6.6v.45a.6.6,0,0,1-.6.61H14.2a.61.61,0,0,1-.61-.61v-.45A.6.6,0,0,1,14.2,57.08Z" transform="translate(-0.5 -2.01)"/><path class="cls-4" d="M13.15,55.83c-.36-1.95-.67-3.93-.92-5.9a29.66,29.66,0,0,1-.4-5.23,2.77,2.77,0,0,1,1.39-2.15,6.68,6.68,0,0,1,2.65-.25l4.07,0H27.2l4.06,0a6.66,6.66,0,0,1,2.65.25,2.81,2.81,0,0,1,1.4,2.15,31.69,31.69,0,0,1-.4,5.23c-.26,2-.58,4-.93,5.9l-.22,1.22-10.18-.16-10.22.16-.22-1.22Z" transform="translate(-0.5 -2.01)"/><path class="cls-3" d="M14.59,55.57s-1.45-8-1.3-10.79a1.39,1.39,0,0,1,.71-1c.05,0,3.94,0,7.26,0h4.62c3.31,0,7.21,0,7.26,0a1.44,1.44,0,0,1,.71,1c.15,2.8-1.3,10.79-1.3,10.79l-9-.14Z" transform="translate(-0.5 -2.01)"/><path class="cls-3" d="M32.08,55.56l-8.51-.13-8.52.13a73.73,73.73,0,0,1-1.11-10.12,1.45,1.45,0,0,1,.67-1c.09-.06,17.82-.06,17.91,0a1.42,1.42,0,0,1,.67,1A73.9,73.9,0,0,1,32.08,55.56Z" transform="translate(-0.5 -2.01)"/><path class="cls-3" d="M14.55,57.4h18a.37.37,0,0,1,.38.37h0v.27a.4.4,0,0,1-.38.39h-18a.39.39,0,0,1-.37-.39v-.27A.37.37,0,0,1,14.55,57.4Z" transform="translate(-0.5 -2.01)"/><path class="cls-4" d="M10,24.73c.26,1.5,1.21,3.25.05,4.42-1.73,1.72-5.44-1-5.93-4.14-.64-4,3.2-8.09,5.78-4.47.66.93-.32,1.9.1,4.2Z" transform="translate(-0.5 -2.01)"/><path class="cls-5" d="M9.86,22.06s-1.35-2.18-3.09-.9-1.87,6.08,2,6.9S9.86,22.06,9.86,22.06Z" transform="translate(-0.5 -2.01)"/><path class="cls-10" d="M9.44,24.36a.55.55,0,0,1,.05.17,9.31,9.31,0,0,1,.21,1.65.46.46,0,0,1-.36.51.44.44,0,0,1-.4-.47,10.89,10.89,0,0,0-.14-1.28c-.18-.1-.51-.26-.72-.09-.37.29-.12.81-.43.95a.39.39,0,0,1-.48-.26s0,0,0-.05A1.5,1.5,0,0,1,7.68,24a1,1,0,0,1,.71-.19,1.29,1.29,0,0,0-.16-.17c-.57-.48-1.27.24-1.28.25a.33.33,0,0,1-.47,0,.47.47,0,0,1-.06-.09.59.59,0,0,1,.08-.69S7.6,22,8.66,22.84a3.06,3.06,0,0,1,.79,1.53Z" transform="translate(-0.5 -2.01)"/><path class="cls-4" d="M36.73,24.73c-.26,1.5-1.21,3.25,0,4.42,1.73,1.72,5.44-1,5.94-4.14.63-4-3.21-8.09-5.79-4.47-.66.93.32,1.9-.1,4.2Z" transform="translate(-0.5 -2.01)"/><path class="cls-5" d="M36.88,22.06s1.35-2.18,3.09-.9,1.88,6.1-2,6.9S36.88,22.06,36.88,22.06Z" transform="translate(-0.5 -2.01)"/><path class="cls-10" d="M37.3,24.36a.64.64,0,0,0,0,.17A9.31,9.31,0,0,0,37,26.18a.46.46,0,0,0,.37.51.45.45,0,0,0,.4-.48A9,9,0,0,1,38,24.94c.18-.1.51-.25.71-.09.38.29.13.81.44.95s.42-.05.49-.31A1.5,1.5,0,0,0,39.07,24a1,1,0,0,0-.71-.19.57.57,0,0,1,.15-.16c.58-.49,1.28.24,1.28.24a.34.34,0,0,0,.48,0l.06-.09a.58.58,0,0,0-.09-.69s-1.09-1.15-2.15-.26a3,3,0,0,0-.8,1.53Z" transform="translate(-0.5 -2.01)"/><path class="cls-4" d="M9.14,21.77c.3-2.91,1.31-7.75,3.63-9.55s7.77-1.24,10.63-1c2.85-.29,8.45-.74,10.62,1s3.33,6.64,3.63,9.55C38.83,25.57,39.78,32,37,35.16c-6.15,7-21,7-27.14,0C7,32,8,25.57,9.14,21.77Z" transform="translate(-0.5 -2.01)"/><path class="cls-5" d="M10.93,22.28s-2.69,8.48.26,11.82c5.42,6.13,19,6.13,24.41,0,2.95-3.34.26-11.82.26-11.82s-.65-6.68-3-8.47c-1.45-1.13-6.18-.9-9.51-.56-3.32-.34-8.06-.58-9.5.56C11.58,15.6,10.93,22.28,10.93,22.28Z" transform="translate(-0.5 -2.01)"/><path class="cls-6" d="M26.25,38.51c3.72-.49,7.18-2,9.35-4.41,2.95-3.34.26-11.82.26-11.82s-.65-6.68-3-8.47c-1.45-1.13-6.18-.9-9.51-.56-3.32-.34-8.06-.58-9.5.56-1.7,1.31-2.5,5.25-2.8,7.26,5.91.22,7.27-1.66,7.27-1.66L17.13,21.7s1.61,1.1,7,.13a19.24,19.24,0,0,0,9-4.36s2.69,11.75.13,16.25c-1.69,3-5,4.16-7,4.79Z" transform="translate(-0.5 -2.01)"/><path class="cls-3" d="M32.61,36.48a11.67,11.67,0,0,0,3-2.38c1.67-1.89,1.54-5.42,1.1-8.13-.36.46-.7,1-.7,1a9.73,9.73,0,0,1-.57,5.89,9.09,9.09,0,0,1-2.82,3.64Z" transform="translate(-0.5 -2.01)"/><path class="cls-3" d="M10.12,25.78c-.46,2.73-.64,6.39,1.07,8.32C15.51,39,25,40,31.44,37.07c-7.94,2.69-16.55.24-18.93-2.39s-1.76-7.8-1.76-7.8S10.41,26.41,10.12,25.78Z" transform="translate(-0.5 -2.01)"/><path class="cls-4" d="M33.5,13.56a9.65,9.65,0,0,1-6.43,5.14c-4.88,1.29-6.74.64-6.74.64l2.26-2.95a11.59,11.59,0,0,1-7.13,2.37c-3.86-.25-4.5-.64-4.5-.64S8.39,21.76,9.3,21s-1.59-1.15-1.68-1.47-1.54-6.61-.38-8a3.64,3.64,0,0,1,2.81-1.23C10.52-1.61,38.41.27,35.68,9.83a4.3,4.3,0,0,1,3.66,3.47,11.84,11.84,0,0,1-1,6.68,3.21,3.21,0,0,0-1,.16l-.77.2a25.6,25.6,0,0,0-2-4.31,6.53,6.53,0,0,1-1.12-2.47Z" transform="translate(-0.5 -2.01)"/><path class="cls-4" d="M11.26,20.58a75.17,75.17,0,0,1,10.3,0,1.27,1.27,0,0,1,.65.6L22.57,23l-.36-1.76h1.55v1.26l-1.19.5.15-.06c.27,2.28-.46,5.48-2.69,6-2.69.69-8.78.92-9.93-1.09-.84-1.47-.88-6.56,1.16-7.28Zm9.93,1.08c-.48-.06-1.14-.06-1.6-.07-1.07,0-2.14-.06-3.21-.07s-2.08,0-3.13,0a12.56,12.56,0,0,0-1.62.08c-.68.25-.91,2.14-1,2.73a7.18,7.18,0,0,0,.38,3c.52.91,3.65,1,4.56,1a18.06,18.06,0,0,0,4.14-.46,1.46,1.46,0,0,0,.48-.21A4,4,0,0,0,21.57,25a7,7,0,0,0,0-2.32,2.79,2.79,0,0,0-.38-1Z" transform="translate(-0.5 -2.01)"/><path class="cls-9" d="M21.19,21.66c-.48-.06-1.14-.06-1.6-.07-1.07,0-2.14-.06-3.21-.07s-2.08,0-3.12,0a12.62,12.62,0,0,0-1.63.08c-.68.25-.91,2.14-1,2.73a7.18,7.18,0,0,0,.38,3c.52.91,3.65,1,4.56,1a18.06,18.06,0,0,0,4.14-.46,1.46,1.46,0,0,0,.48-.21A4,4,0,0,0,21.57,25a7,7,0,0,0,0-2.32,2.79,2.79,0,0,0-.38-1Z" transform="translate(-0.5 -2.01)"/><path class="cls-3" d="M21.19,21.66c-.48-.06-1.13-.06-1.6-.07-1.07,0-2.14-.06-3.21-.07s-2.08,0-3.12,0a12.62,12.62,0,0,0-1.63.08c-.68.25-.91,2.14-1,2.73v.11a5.69,5.69,0,0,0,.38,2.11c.52.9,3.65,1,4.56,1a18.63,18.63,0,0,0,4.14-.46,1.74,1.74,0,0,0,.48-.22,4,4,0,0,0,1.33-2.64c0-.26.07-.53.09-.8a6.93,6.93,0,0,0-.1-.78,2.79,2.79,0,0,0-.38-1Z" transform="translate(-0.5 -2.01)"/><path class="cls-9" d="M19.17,21.57l-2.35,0-3.18,2s.39-.9-.32-.5c-.51.28-1.89,1.14-2.63,1.6a5.2,5.2,0,0,0,.38,2,.64.64,0,0,0,.1.13l8-5.14Zm-5,6c.63.05,1.19.06,1.5.06h.57C18,26,20.08,23.85,21.5,22.39a2.29,2.29,0,0,0-.28-.71c-1.76,1.69-5,4.23-7.09,5.86Z" transform="translate(-0.5 -2.01)"/><path class="cls-4" d="M35.53,20.58a75.17,75.17,0,0,0-10.3,0,1.29,1.29,0,0,0-.66.6L24.21,23l.36-1.76H23v1.26l1.19.5-.14-.06c-.28,2.28.46,5.48,2.69,6,2.69.69,8.78.92,9.92-1.09.85-1.47.89-6.56-1.15-7.28ZM25.6,21.66c.48-.06,1.13-.06,1.6-.07,1.07,0,2.14-.06,3.21-.07s2.08,0,3.12,0a12.62,12.62,0,0,1,1.63.08c.68.24.91,2.14.94,2.73a7.18,7.18,0,0,1-.38,3c-.51.91-3.65,1-4.55,1A17.94,17.94,0,0,1,27,27.88a1.51,1.51,0,0,1-.49-.21A4.09,4.09,0,0,1,25.21,25a7.22,7.22,0,0,1,0-2.32,2.65,2.65,0,0,1,.39-1Z" transform="translate(-0.5 -2.01)"/><path class="cls-9" d="M25.6,21.66c.48-.06,1.13-.06,1.6-.07,1.07,0,2.14-.06,3.21-.07s2.08,0,3.12,0a12.62,12.62,0,0,1,1.63.08c.68.24.91,2.14.94,2.73a7.18,7.18,0,0,1-.38,3c-.51.91-3.65,1-4.55,1A17.94,17.94,0,0,1,27,27.88a1.51,1.51,0,0,1-.49-.21A4.09,4.09,0,0,1,25.21,25a7.22,7.22,0,0,1,0-2.32,2.65,2.65,0,0,1,.39-1Z" transform="translate(-0.5 -2.01)"/><path class="cls-3" d="M25.6,21.66c.48-.06,1.13-.06,1.6-.07,1.07,0,2.14-.06,3.21-.07s2.08,0,3.12,0a12.62,12.62,0,0,1,1.63.08c.68.24.91,2.14.94,2.73v.21a5.83,5.83,0,0,1-.38,2.23c-.52.9-3.65,1-4.56,1A17.91,17.91,0,0,1,27,27.35a1.43,1.43,0,0,1-.49-.21,4,4,0,0,1-1.33-2.65,6.86,6.86,0,0,1-.09-.9,6.73,6.73,0,0,1,.1-.89,2.79,2.79,0,0,1,.38-1Z" transform="translate(-0.5 -2.01)"/><path class="cls-9" d="M31.18,21.52l2.35,0h0L25.9,26.47a5.38,5.38,0,0,1-.69-2h0c.77-.48,2-1.21,2.42-1.47.7-.4.32.5.32.5l3.23-2Zm4.23.28a2.1,2.1,0,0,1,.35.66c-1.48,1.51-3.63,3.72-5.44,5.33a18.35,18.35,0,0,1-1.95-.18C30.43,26,33.63,23.51,35.41,21.8Z" transform="translate(-0.5 -2.01)"/><path class="cls-11" d="M20.38,30.05s-1.23-2-.24-2.76,4.69-1,6,0,.54,2.08.27,2.62-1.86.85-3.48.82a4.74,4.74,0,0,1-2.55-.7Z" transform="translate(-0.5 -2.01)"/><path class="cls-9" d="M20.8,30.08S20,28.7,21,28s4.19-.32,4.77.12.33,1.56.33,1.56,1-.54.77-1.49-5.13-2.08-6.46-1,.43,2.85.43,2.85Z" transform="translate(-0.5 -2.01)"/><path class="cls-4" d="M28.16,29.57s-.41.2-.39-.19A2.21,2.21,0,0,1,30.21,28a2.4,2.4,0,0,1,1.92,2.42c0,.28-.09.4-.13.39s-.17-.13-.26-.4a2.77,2.77,0,0,0-2.23-1.06Z" transform="translate(-0.5 -2.01)"/><path class="cls-5" d="M28.05,29.62A2,2,0,0,1,30.36,29a1.94,1.94,0,0,1,1.42,1.84,4.09,4.09,0,0,1-2.18.08,2.81,2.81,0,0,1-1.53-1.27Z" transform="translate(-0.5 -2.01)"/><path class="cls-4" d="M18.66,32a11.17,11.17,0,0,0,6.72.64c3.51-.87,3.89-2.09,3.83-2.28s-.83-.15-.69-.34,1.44-.6,2,.27.08,1.48,0,1.38-.4-.57-.4-.57-.91,1.67-4.3,2.32-7.3-.87-7.58-1.26.44-.16.44-.16Z" transform="translate(-0.5 -2.01)"/><path class="cls-4" d="M24.94,29c.69.11.44,1,0,1.12C23.18,30.55,23.88,28.85,24.94,29Z" transform="translate(-0.5 -2.01)"/><path class="cls-4" d="M21.55,29c-.68.11-.43,1,0,1.12C23.31,30.55,22.61,28.85,21.55,29Z" transform="translate(-0.5 -2.01)"/><path class="cls-6" d="M20.71,34.77a12.62,12.62,0,0,0,3.88,0c2-.35.19.9-1.09,1.16s-2.79-1.13-2.79-1.13Z" transform="translate(-0.5 -2.01)"/><path class="cls-3" d="M27,16.66c-1.94.9-3.36,1.06-3.11.42S26,13.38,26,13.38a32.27,32.27,0,0,1-5.78,2.54c-2.12.52,1-2.86,1-2.86S18,15.63,15,16.18s-1.15-2.37-1.15-2.37-2.48,2.44-3.45,1.59,3.26-4.61,3.07-4.29S11.26,14,11.86,14s3.06-2,3.73-2.18-1.38,2.47-.87,2.76,4.34-1.12,6.49-2.67,2.35-.57,1.64.52-1.86,2.21-1.25,2a41.55,41.55,0,0,0,6.29-3.73c1.44-1.25,1.14.48-.54,3s.24,1.31,3.29-1.39,3.14-2.69,3.08-2.07c-.15,1.52-4.83,5.55-6.77,6.45Z" transform="translate(-0.5 -2.01)"/><path class="cls-4" d="M20.9,30.16a1.66,1.66,0,0,1-.57-2.08c.62-1.24,5.45-1,5.91.2s-1,2.18-.42,2.25a2.14,2.14,0,0,0,1.46-2.8c-.53-1.67-5.05-2.32-7.47-1-1.39.76-.68,2.78.24,3.48.47.36.92.25.85-.05Z" transform="translate(-0.5 -2.01)"/><path class="cls-9" d="M23.43,49.48a1.29,1.29,0,0,1,.28,0,1.64,1.64,0,1,1-.28,0Z" transform="translate(-0.5 -2.01)"/></svg>